STARTFONT 2.1
FONT matty.chart
SIZE 16 72 72
FONTBOUNDINGBOX 16 16 0 -2
STARTPROPERTIES 4
FONT_DESCENT 2
FONT_ASCENT 14
DEFAULT_CHAR 0
COPYRIGHT "Copyright (c) 1993 James Matthew Farrow - All rights reserved."
ENDPROPERTIES
CHARS 128
STARTCHAR ch-0
ENCODING 0
SWIDTH 1000 0
DWIDTH 16 0
BBX 16 16 0 -2
BITMAP
0000
0000
0000
0000
0000
0000
0000
0000
ffff
0000
0000
0000
0000
0000
0000
0000
ENDCHAR
STARTCHAR ch-1
ENCODING 1
SWIDTH 1000 0
DWIDTH 16 0
BBX 16 16 0 -2
BITMAP
0000
0000
0000
0000
0000
0000
0000
ffff
ffff
ffff
0000
0000
0000
0000
0000
0000
ENDCHAR
STARTCHAR ch-2
ENCODING 2
SWIDTH 1000 0
DWIDTH 16 0
BBX 16 16 0 -2
BITMAP
0080
0080
0080
0080
0080
0080
0080
0080
0080
0080
0080
0080
0080
0080
0080
0080
ENDCHAR
STARTCHAR ch-3
ENCODING 3
SWIDTH 1000 0
DWIDTH 16 0
BBX 16 16 0 -2
BITMAP
01c0
01c0
01c0
01c0
01c0
01c0
01c0
01c0
01c0
01c0
01c0
01c0
01c0
01c0
01c0
01c0
ENDCHAR
STARTCHAR ch-4
ENCODING 4
SWIDTH 1000 0
DWIDTH 16 0
BBX 16 16 0 -2
BITMAP
0000
0000
0000
0000
0000
0000
0000
0000
e79c
0000
0000
0000
0000
0000
0000
0000
ENDCHAR
STARTCHAR ch-5
ENCODING 5
SWIDTH 1000 0
DWIDTH 16 0
BBX 16 16 0 -2
BITMAP
0000
0000
0000
0000
0000
0000
0000
e3c7
e3c7
e3c7
0000
0000
0000
0000
0000
0000
ENDCHAR
STARTCHAR ch-6
ENCODING 6
SWIDTH 1000 0
DWIDTH 16 0
BBX 16 16 0 -2
BITMAP
0080
0080
0080
0000
0000
0080
0080
0080
0080
0000
0000
0080
0080
0080
0000
0000
ENDCHAR
STARTCHAR ch-7
ENCODING 7
SWIDTH 1000 0
DWIDTH 16 0
BBX 16 16 0 -2
BITMAP
01c0
01c0
01c0
0000
0000
01c0
01c0
01c0
01c0
0000
0000
01c0
01c0
01c0
0000
0000
ENDCHAR
STARTCHAR ch-8
ENCODING 8
SWIDTH 1000 0
DWIDTH 16 0
BBX 16 16 0 -2
BITMAP
0000
0000
0000
0000
0000
0000
0000
0000
eeee
0000
0000
0000
0000
0000
0000
0000
ENDCHAR
STARTCHAR ch-9
ENCODING 9
SWIDTH 1000 0
DWIDTH 16 0
BBX 16 16 0 -2
BITMAP
0000
0000
0000
0000
0000
0000
0000
eeee
eeee
eeee
0000
0000
0000
0000
0000
0000
ENDCHAR
STARTCHAR ch-10
ENCODING 10
SWIDTH 1000 0
DWIDTH 16 0
BBX 16 16 0 -2
BITMAP
0080
0080
0080
0000
0080
0080
0080
0000
0080
0080
0080
0000
0080
0080
0080
0000
ENDCHAR
STARTCHAR ch-11
ENCODING 11
SWIDTH 1000 0
DWIDTH 16 0
BBX 16 16 0 -2
BITMAP
01c0
01c0
01c0
0000
01c0
01c0
01c0
0000
01c0
01c0
01c0
0000
01c0
01c0
01c0
0000
ENDCHAR
STARTCHAR ch-12
ENCODING 12
SWIDTH 1000 0
DWIDTH 16 0
BBX 16 16 0 -2
BITMAP
0000
0000
0000
0000
0000
0000
0000
0000
00ff
0080
0080
0080
0080
0080
0080
0080
ENDCHAR
STARTCHAR ch-13
ENCODING 13
SWIDTH 1000 0
DWIDTH 16 0
BBX 16 16 0 -2
BITMAP
0000
0000
0000
0000
0000
0000
0000
00ff
00ff
00ff
0080
0080
0080
0080
0080
0080
ENDCHAR
STARTCHAR ch-14
ENCODING 14
SWIDTH 1000 0
DWIDTH 16 0
BBX 16 16 0 -2
BITMAP
0000
0000
0000
0000
0000
0000
0000
0000
01ff
01c0
01c0
01c0
01c0
01c0
01c0
01c0
ENDCHAR
STARTCHAR ch-15
ENCODING 15
SWIDTH 1000 0
DWIDTH 16 0
BBX 16 16 0 -2
BITMAP
0000
0000
0000
0000
0000
0000
0000
01ff
01ff
01ff
01c0
01c0
01c0
01c0
01c0
01c0
ENDCHAR
STARTCHAR ch-16
ENCODING 16
SWIDTH 1000 0
DWIDTH 16 0
BBX 16 16 0 -2
BITMAP
0000
0000
0000
0000
0000
0000
0000
0000
ff80
0080
0080
0080
0080
0080
0080
0080
ENDCHAR
STARTCHAR ch-17
ENCODING 17
SWIDTH 1000 0
DWIDTH 16 0
BBX 16 16 0 -2
BITMAP
0000
0000
0000
0000
0000
0000
0000
ff80
ff80
ff80
0080
0080
0080
0080
0080
0080
ENDCHAR
STARTCHAR ch-18
ENCODING 18
SWIDTH 1000 0
DWIDTH 16 0
BBX 16 16 0 -2
BITMAP
0000
0000
0000
0000
0000
0000
0000
0000
ffc0
01c0
01c0
01c0
01c0
01c0
01c0
01c0
ENDCHAR
STARTCHAR ch-19
ENCODING 19
SWIDTH 1000 0
DWIDTH 16 0
BBX 16 16 0 -2
BITMAP
0000
0000
0000
0000
0000
0000
0000
ffc0
ffc0
ffc0
01c0
01c0
01c0
01c0
01c0
01c0
ENDCHAR
STARTCHAR ch-20
ENCODING 20
SWIDTH 1000 0
DWIDTH 16 0
BBX 16 16 0 -2
BITMAP
0080
0080
0080
0080
0080
0080
0080
0080
00ff
0000
0000
0000
0000
0000
0000
0000
ENDCHAR
STARTCHAR ch-21
ENCODING 21
SWIDTH 1000 0
DWIDTH 16 0
BBX 16 16 0 -2
BITMAP
0080
0080
0080
0080
0080
0080
0080
00ff
00ff
00ff
0000
0000
0000
0000
0000
0000
ENDCHAR
STARTCHAR ch-22
ENCODING 22
SWIDTH 1000 0
DWIDTH 16 0
BBX 16 16 0 -2
BITMAP
01c0
01c0
01c0
01c0
01c0
01c0
01c0
01c0
01ff
0000
0000
0000
0000
0000
0000
0000
ENDCHAR
STARTCHAR ch-23
ENCODING 23
SWIDTH 1000 0
DWIDTH 16 0
BBX 16 16 0 -2
BITMAP
01c0
01c0
01c0
01c0
01c0
01c0
01c0
01ff
01ff
01ff
0000
0000
0000
0000
0000
0000
ENDCHAR
STARTCHAR ch-24
ENCODING 24
SWIDTH 1000 0
DWIDTH 16 0
BBX 16 16 0 -2
BITMAP
0080
0080
0080
0080
0080
0080
0080
0080
ff80
0000
0000
0000
0000
0000
0000
0000
ENDCHAR
STARTCHAR ch-25
ENCODING 25
SWIDTH 1000 0
DWIDTH 16 0
BBX 16 16 0 -2
BITMAP
0080
0080
0080
0080
0080
0080
0080
ff80
ff80
ff80
0000
0000
0000
0000
0000
0000
ENDCHAR
STARTCHAR ch-26
ENCODING 26
SWIDTH 1000 0
DWIDTH 16 0
BBX 16 16 0 -2
BITMAP
01c0
01c0
01c0
01c0
01c0
01c0
01c0
01c0
ffc0
0000
0000
0000
0000
0000
0000
0000
ENDCHAR
STARTCHAR ch-27
ENCODING 27
SWIDTH 1000 0
DWIDTH 16 0
BBX 16 16 0 -2
BITMAP
01c0
01c0
01c0
01c0
01c0
01c0
01c0
ffc0
ffc0
ffc0
0000
0000
0000
0000
0000
0000
ENDCHAR
STARTCHAR ch-28
ENCODING 28
SWIDTH 1000 0
DWIDTH 16 0
BBX 16 16 0 -2
BITMAP
0080
0080
0080
0080
0080
0080
0080
0080
00ff
0080
0080
0080
0080
0080
0080
0080
ENDCHAR
STARTCHAR ch-29
ENCODING 29
SWIDTH 1000 0
DWIDTH 16 0
BBX 16 16 0 -2
BITMAP
0080
0080
0080
0080
0080
0080
0080
00ff
00ff
00ff
0080
0080
0080
0080
0080
0080
ENDCHAR
STARTCHAR ch-30
ENCODING 30
SWIDTH 1000 0
DWIDTH 16 0
BBX 16 16 0 -2
BITMAP
01c0
01c0
01c0
01c0
01c0
01c0
01c0
01c0
01ff
0080
0080
0080
0080
0080
0080
0080
ENDCHAR
STARTCHAR ch-31
ENCODING 31
SWIDTH 1000 0
DWIDTH 16 0
BBX 16 16 0 -2
BITMAP
0080
0080
0080
0080
0080
0080
0080
0080
01ff
01c0
01c0
01c0
01c0
01c0
01c0
01c0
ENDCHAR
STARTCHAR ch-32
ENCODING 32
SWIDTH 1000 0
DWIDTH 16 0
BBX 16 16 0 -2
BITMAP
01c0
01c0
01c0
01c0
01c0
01c0
01c0
01c0
01ff
01c0
01c0
01c0
01c0
01c0
01c0
01c0
ENDCHAR
STARTCHAR ch-33
ENCODING 33
SWIDTH 1000 0
DWIDTH 16 0
BBX 16 16 0 -2
BITMAP
01c0
01c0
01c0
01c0
01c0
01c0
01c0
01ff
01ff
01ff
0080
0080
0080
0080
0080
0080
ENDCHAR
STARTCHAR ch-34
ENCODING 34
SWIDTH 1000 0
DWIDTH 16 0
BBX 16 16 0 -2
BITMAP
0080
0080
0080
0080
0080
0080
0080
01ff
01ff
01ff
01c0
01c0
01c0
01c0
01c0
01c0
ENDCHAR
STARTCHAR ch-35
ENCODING 35
SWIDTH 1000 0
DWIDTH 16 0
BBX 16 16 0 -2
BITMAP
01c0
01c0
01c0
01c0
01c0
01c0
01c0
01ff
01ff
01ff
01c0
01c0
01c0
01c0
01c0
01c0
ENDCHAR
STARTCHAR ch-36
ENCODING 36
SWIDTH 1000 0
DWIDTH 16 0
BBX 16 16 0 -2
BITMAP
0080
0080
0080
0080
0080
0080
0080
0080
ff80
0080
0080
0080
0080
0080
0080
0080
ENDCHAR
STARTCHAR ch-37
ENCODING 37
SWIDTH 1000 0
DWIDTH 16 0
BBX 16 16 0 -2
BITMAP
0080
0080
0080
0080
0080
0080
0080
ff80
ff80
ff80
0080
0080
0080
0080
0080
0080
ENDCHAR
STARTCHAR ch-38
ENCODING 38
SWIDTH 1000 0
DWIDTH 16 0
BBX 16 16 0 -2
BITMAP
01c0
01c0
01c0
01c0
01c0
01c0
01c0
01c0
ffc0
0080
0080
0080
0080
0080
0080
0080
ENDCHAR
STARTCHAR ch-39
ENCODING 39
SWIDTH 1000 0
DWIDTH 16 0
BBX 16 16 0 -2
BITMAP
0080
0080
0080
0080
0080
0080
0080
0080
ffc0
01c0
01c0
01c0
01c0
01c0
01c0
01c0
ENDCHAR
STARTCHAR ch-40
ENCODING 40
SWIDTH 1000 0
DWIDTH 16 0
BBX 16 16 0 -2
BITMAP
01c0
01c0
01c0
01c0
01c0
01c0
01c0
01c0
ffc0
01c0
01c0
01c0
01c0
01c0
01c0
01c0
ENDCHAR
STARTCHAR ch-41
ENCODING 41
SWIDTH 1000 0
DWIDTH 16 0
BBX 16 16 0 -2
BITMAP
01c0
01c0
01c0
01c0
01c0
01c0
01c0
ffc0
ffc0
ffc0
0080
0080
0080
0080
0080
0080
ENDCHAR
STARTCHAR ch-42
ENCODING 42
SWIDTH 1000 0
DWIDTH 16 0
BBX 16 16 0 -2
BITMAP
0080
0080
0080
0080
0080
0080
0080
ffc0
ffc0
ffc0
01c0
01c0
01c0
01c0
01c0
01c0
ENDCHAR
STARTCHAR ch-43
ENCODING 43
SWIDTH 1000 0
DWIDTH 16 0
BBX 16 16 0 -2
BITMAP
01c0
01c0
01c0
01c0
01c0
01c0
01c0
ffc0
ffc0
ffc0
01c0
01c0
01c0
01c0
01c0
01c0
ENDCHAR
STARTCHAR ch-44
ENCODING 44
SWIDTH 1000 0
DWIDTH 16 0
BBX 16 16 0 -2
BITMAP
0000
0000
0000
0000
0000
0000
0000
0000
ffff
0080
0080
0080
0080
0080
0080
0080
ENDCHAR
STARTCHAR ch-45
ENCODING 45
SWIDTH 1000 0
DWIDTH 16 0
BBX 16 16 0 -2
BITMAP
0000
0000
0000
0000
0000
0000
0000
ff80
ffff
ff80
0080
0080
0080
0080
0080
0080
ENDCHAR
STARTCHAR ch-46
ENCODING 46
SWIDTH 1000 0
DWIDTH 16 0
BBX 16 16 0 -2
BITMAP
0000
0000
0000
0000
0000
0000
0000
00ff
ffff
00ff
0080
0080
0080
0080
0080
0080
ENDCHAR
STARTCHAR ch-47
ENCODING 47
SWIDTH 1000 0
DWIDTH 16 0
BBX 16 16 0 -2
BITMAP
0000
0000
0000
0000
0000
0000
0000
ffff
ffff
ffff
0080
0080
0080
0080
0080
0080
ENDCHAR
STARTCHAR ch-48
ENCODING 48
SWIDTH 1000 0
DWIDTH 16 0
BBX 16 16 0 -2
BITMAP
0000
0000
0000
0000
0000
0000
0000
0000
ffff
01c0
01c0
01c0
01c0
01c0
01c0
01c0
ENDCHAR
STARTCHAR ch-49
ENCODING 49
SWIDTH 1000 0
DWIDTH 16 0
BBX 16 16 0 -2
BITMAP
0000
0000
0000
0000
0000
0000
0000
ffc0
ffff
ffc0
01c0
01c0
01c0
01c0
01c0
01c0
ENDCHAR
STARTCHAR ch-50
ENCODING 50
SWIDTH 1000 0
DWIDTH 16 0
BBX 16 16 0 -2
BITMAP
0000
0000
0000
0000
0000
0000
0000
01ff
ffff
01ff
01c0
01c0
01c0
01c0
01c0
01c0
ENDCHAR
STARTCHAR ch-51
ENCODING 51
SWIDTH 1000 0
DWIDTH 16 0
BBX 16 16 0 -2
BITMAP
0000
0000
0000
0000
0000
0000
0000
ffff
ffff
ffff
01c0
01c0
01c0
01c0
01c0
01c0
ENDCHAR
STARTCHAR ch-52
ENCODING 52
SWIDTH 1000 0
DWIDTH 16 0
BBX 16 16 0 -2
BITMAP
0080
0080
0080
0080
0080
0080
0080
0080
ffff
0000
0000
0000
0000
0000
0000
0000
ENDCHAR
STARTCHAR ch-53
ENCODING 53
SWIDTH 1000 0
DWIDTH 16 0
BBX 16 16 0 -2
BITMAP
0080
0080
0080
0080
0080
0080
0080
ff80
ffff
ff80
0000
0000
0000
0000
0000
0000
ENDCHAR
STARTCHAR ch-54
ENCODING 54
SWIDTH 1000 0
DWIDTH 16 0
BBX 16 16 0 -2
BITMAP
0080
0080
0080
0080
0080
0080
0080
00ff
ffff
00ff
0000
0000
0000
0000
0000
0000
ENDCHAR
STARTCHAR ch-55
ENCODING 55
SWIDTH 1000 0
DWIDTH 16 0
BBX 16 16 0 -2
BITMAP
0080
0080
0080
0080
0080
0080
0080
ffff
ffff
ffff
0000
0000
0000
0000
0000
0000
ENDCHAR
STARTCHAR ch-56
ENCODING 56
SWIDTH 1000 0
DWIDTH 16 0
BBX 16 16 0 -2
BITMAP
01c0
01c0
01c0
01c0
01c0
01c0
01c0
01c0
ffff
0000
0000
0000
0000
0000
0000
0000
ENDCHAR
STARTCHAR ch-57
ENCODING 57
SWIDTH 1000 0
DWIDTH 16 0
BBX 16 16 0 -2
BITMAP
01c0
01c0
01c0
01c0
01c0
01c0
01c0
ffc0
ffff
ffc0
0000
0000
0000
0000
0000
0000
ENDCHAR
STARTCHAR ch-58
ENCODING 58
SWIDTH 1000 0
DWIDTH 16 0
BBX 16 16 0 -2
BITMAP
01c0
01c0
01c0
01c0
01c0
01c0
01c0
01ff
ffff
01ff
0000
0000
0000
0000
0000
0000
ENDCHAR
STARTCHAR ch-59
ENCODING 59
SWIDTH 1000 0
DWIDTH 16 0
BBX 16 16 0 -2
BITMAP
01c0
01c0
01c0
01c0
01c0
01c0
01c0
ffff
ffff
ffff
0000
0000
0000
0000
0000
0000
ENDCHAR
STARTCHAR ch-60
ENCODING 60
SWIDTH 1000 0
DWIDTH 16 0
BBX 16 16 0 -2
BITMAP
0080
0080
0080
0080
0080
0080
0080
0080
ffff
0080
0080
0080
0080
0080
0080
0080
ENDCHAR
STARTCHAR ch-61
ENCODING 61
SWIDTH 1000 0
DWIDTH 16 0
BBX 16 16 0 -2
BITMAP
0080
0080
0080
0080
0080
0080
0080
ff80
ffff
ff80
0080
0080
0080
0080
0080
0080
ENDCHAR
STARTCHAR ch-62
ENCODING 62
SWIDTH 1000 0
DWIDTH 16 0
BBX 16 16 0 -2
BITMAP
0080
0080
0080
0080
0080
0080
0080
00ff
ffff
00ff
0080
0080
0080
0080
0080
0080
ENDCHAR
STARTCHAR ch-63
ENCODING 63
SWIDTH 1000 0
DWIDTH 16 0
BBX 16 16 0 -2
BITMAP
0080
0080
0080
0080
0080
0080
0080
ffff
ffff
ffff
0080
0080
0080
0080
0080
0080
ENDCHAR
STARTCHAR ch-64
ENCODING 64
SWIDTH 1000 0
DWIDTH 16 0
BBX 16 16 0 -2
BITMAP
01c0
01c0
01c0
01c0
01c0
01c0
01c0
01c0
ffff
0080
0080
0080
0080
0080
0080
0080
ENDCHAR
STARTCHAR ch-65
ENCODING 65
SWIDTH 1000 0
DWIDTH 16 0
BBX 16 16 0 -2
BITMAP
0080
0080
0080
0080
0080
0080
0080
0080
ffff
01c0
01c0
01c0
01c0
01c0
01c0
01c0
ENDCHAR
STARTCHAR ch-66
ENCODING 66
SWIDTH 1000 0
DWIDTH 16 0
BBX 16 16 0 -2
BITMAP
01c0
01c0
01c0
01c0
01c0
01c0
01c0
01c0
ffff
01c0
01c0
01c0
01c0
01c0
01c0
01c0
ENDCHAR
STARTCHAR ch-67
ENCODING 67
SWIDTH 1000 0
DWIDTH 16 0
BBX 16 16 0 -2
BITMAP
01c0
01c0
01c0
01c0
01c0
01c0
01c0
ffc0
ffff
ffc0
0080
0080
0080
0080
0080
0080
ENDCHAR
STARTCHAR ch-68
ENCODING 68
SWIDTH 1000 0
DWIDTH 16 0
BBX 16 16 0 -2
BITMAP
01c0
01c0
01c0
01c0
01c0
01c0
01c0
01ff
ffff
01ff
0080
0080
0080
0080
0080
0080
ENDCHAR
STARTCHAR ch-69
ENCODING 69
SWIDTH 1000 0
DWIDTH 16 0
BBX 16 16 0 -2
BITMAP
0080
0080
0080
0080
0080
0080
0080
ffc0
ffff
ffc0
01c0
01c0
01c0
01c0
01c0
01c0
ENDCHAR
STARTCHAR ch-70
ENCODING 70
SWIDTH 1000 0
DWIDTH 16 0
BBX 16 16 0 -2
BITMAP
0080
0080
0080
0080
0080
0080
0080
01ff
ffff
01ff
01c0
01c0
01c0
01c0
01c0
01c0
ENDCHAR
STARTCHAR ch-71
ENCODING 71
SWIDTH 1000 0
DWIDTH 16 0
BBX 16 16 0 -2
BITMAP
01c0
01c0
01c0
01c0
01c0
01c0
01c0
ffff
ffff
ffff
0080
0080
0080
0080
0080
0080
ENDCHAR
STARTCHAR ch-72
ENCODING 72
SWIDTH 1000 0
DWIDTH 16 0
BBX 16 16 0 -2
BITMAP
0080
0080
0080
0080
0080
0080
0080
ffff
ffff
ffff
01c0
01c0
01c0
01c0
01c0
01c0
ENDCHAR
STARTCHAR ch-73
ENCODING 73
SWIDTH 1000 0
DWIDTH 16 0
BBX 16 16 0 -2
BITMAP
01c0
01c0
01c0
01c0
01c0
01c0
01c0
ffc0
ffff
ffc0
01c0
01c0
01c0
01c0
01c0
01c0
ENDCHAR
STARTCHAR ch-74
ENCODING 74
SWIDTH 1000 0
DWIDTH 16 0
BBX 16 16 0 -2
BITMAP
01c0
01c0
01c0
01c0
01c0
01c0
01c0
01ff
ffff
01ff
01c0
01c0
01c0
01c0
01c0
01c0
ENDCHAR
STARTCHAR ch-75
ENCODING 75
SWIDTH 1000 0
DWIDTH 16 0
BBX 16 16 0 -2
BITMAP
01c0
01c0
01c0
01c0
01c0
01c0
01c0
ffff
ffff
ffff
01c0
01c0
01c0
01c0
01c0
01c0
ENDCHAR
STARTCHAR ch-76
ENCODING 76
SWIDTH 1000 0
DWIDTH 16 0
BBX 16 16 0 -2
BITMAP
0000
0000
0000
0000
0000
0000
0000
0000
fcfc
0000
0000
0000
0000
0000
0000
0000
ENDCHAR
STARTCHAR ch-77
ENCODING 77
SWIDTH 1000 0
DWIDTH 16 0
BBX 16 16 0 -2
BITMAP
0000
0000
0000
0000
0000
0000
0000
fcfc
fcfc
fcfc
0000
0000
0000
0000
0000
0000
ENDCHAR
STARTCHAR ch-78
ENCODING 78
SWIDTH 1000 0
DWIDTH 16 0
BBX 16 16 0 -2
BITMAP
0080
0080
0080
0080
0080
0080
0000
0000
0080
0080
0080
0080
0080
0080
0000
0000
ENDCHAR
STARTCHAR ch-79
ENCODING 79
SWIDTH 1000 0
DWIDTH 16 0
BBX 16 16 0 -2
BITMAP
01c0
01c0
01c0
01c0
01c0
01c0
0000
0000
01c0
01c0
01c0
01c0
01c0
01c0
0000
0000
ENDCHAR
STARTCHAR ch-80
ENCODING 80
SWIDTH 1000 0
DWIDTH 16 0
BBX 16 16 0 -2
BITMAP
0000
0000
0000
0000
0000
0000
0000
ffff
0000
ffff
0000
0000
0000
0000
0000
0000
ENDCHAR
STARTCHAR ch-81
ENCODING 81
SWIDTH 1000 0
DWIDTH 16 0
BBX 16 16 0 -2
BITMAP
0140
0140
0140
0140
0140
0140
0140
0140
0140
0140
0140
0140
0140
0140
0140
0140
ENDCHAR
STARTCHAR ch-82
ENCODING 82
SWIDTH 1000 0
DWIDTH 16 0
BBX 16 16 0 -2
BITMAP
0000
0000
0000
0000
0000
0000
0000
00ff
0080
00ff
0080
0080
0080
0080
0080
0080
ENDCHAR
STARTCHAR ch-83
ENCODING 83
SWIDTH 1000 0
DWIDTH 16 0
BBX 16 16 0 -2
BITMAP
0000
0000
0000
0000
0000
0000
0000
0000
01ff
0140
0140
0140
0140
0140
0140
0140
ENDCHAR
STARTCHAR ch-84
ENCODING 84
SWIDTH 1000 0
DWIDTH 16 0
BBX 16 16 0 -2
BITMAP
0000
0000
0000
0000
0000
0000
0000
01ff
0100
017f
0140
0140
0140
0140
0140
0140
ENDCHAR
STARTCHAR ch-85
ENCODING 85
SWIDTH 1000 0
DWIDTH 16 0
BBX 16 16 0 -2
BITMAP
0000
0000
0000
0000
0000
0000
0000
ff80
0080
ff80
0080
0080
0080
0080
0080
0080
ENDCHAR
STARTCHAR ch-86
ENCODING 86
SWIDTH 1000 0
DWIDTH 16 0
BBX 16 16 0 -2
BITMAP
0000
0000
0000
0000
0000
0000
0000
0000
ffc0
0140
0140
0140
0140
0140
0140
0140
ENDCHAR
STARTCHAR ch-87
ENCODING 87
SWIDTH 1000 0
DWIDTH 16 0
BBX 16 16 0 -2
BITMAP
0000
0000
0000
0000
0000
0000
0000
ffc0
0040
ff40
0140
0140
0140
0140
0140
0140
ENDCHAR
STARTCHAR ch-88
ENCODING 88
SWIDTH 1000 0
DWIDTH 16 0
BBX 16 16 0 -2
BITMAP
0080
0080
0080
0080
0080
0080
0080
00ff
0080
00ff
0000
0000
0000
0000
0000
0000
ENDCHAR
STARTCHAR ch-89
ENCODING 89
SWIDTH 1000 0
DWIDTH 16 0
BBX 16 16 0 -2
BITMAP
0140
0140
0140
0140
0140
0140
0140
0140
01ff
0000
0000
0000
0000
0000
0000
0000
ENDCHAR
STARTCHAR ch-90
ENCODING 90
SWIDTH 1000 0
DWIDTH 16 0
BBX 16 16 0 -2
BITMAP
0140
0140
0140
0140
0140
0140
0140
017f
0100
01ff
0000
0000
0000
0000
0000
0000
ENDCHAR
STARTCHAR ch-91
ENCODING 91
SWIDTH 1000 0
DWIDTH 16 0
BBX 16 16 0 -2
BITMAP
0080
0080
0080
0080
0080
0080
0080
ff80
0080
ff80
0000
0000
0000
0000
0000
0000
ENDCHAR
STARTCHAR ch-92
ENCODING 92
SWIDTH 1000 0
DWIDTH 16 0
BBX 16 16 0 -2
BITMAP
0140
0140
0140
0140
0140
0140
0140
0140
ffc0
0000
0000
0000
0000
0000
0000
0000
ENDCHAR
STARTCHAR ch-93
ENCODING 93
SWIDTH 1000 0
DWIDTH 16 0
BBX 16 16 0 -2
BITMAP
0140
0140
0140
0140
0140
0140
0140
ff40
0040
ffc0
0000
0000
0000
0000
0000
0000
ENDCHAR
STARTCHAR ch-94
ENCODING 94
SWIDTH 1000 0
DWIDTH 16 0
BBX 16 16 0 -2
BITMAP
0080
0080
0080
0080
0080
0080
0080
00ff
0080
00ff
0080
0080
0080
0080
0080
0080
ENDCHAR
STARTCHAR ch-95
ENCODING 95
SWIDTH 1000 0
DWIDTH 16 0
BBX 16 16 0 -2
BITMAP
0140
0140
0140
0140
0140
0140
0140
0140
017f
0140
0140
0140
0140
0140
0140
0140
ENDCHAR
STARTCHAR ch-96
ENCODING 96
SWIDTH 1000 0
DWIDTH 16 0
BBX 16 16 0 -2
BITMAP
0140
0140
0140
0140
0140
0140
0140
017f
0100
017f
0140
0140
0140
0140
0140
0140
ENDCHAR
STARTCHAR ch-97
ENCODING 97
SWIDTH 1000 0
DWIDTH 16 0
BBX 16 16 0 -2
BITMAP
0080
0080
0080
0080
0080
0080
0080
ff80
0080
ff80
0080
0080
0080
0080
0080
0080
ENDCHAR
STARTCHAR ch-98
ENCODING 98
SWIDTH 1000 0
DWIDTH 16 0
BBX 16 16 0 -2
BITMAP
0140
0140
0140
0140
0140
0140
0140
0140
ff40
0140
0140
0140
0140
0140
0140
0140
ENDCHAR
STARTCHAR ch-99
ENCODING 99
SWIDTH 1000 0
DWIDTH 16 0
BBX 16 16 0 -2
BITMAP
0140
0140
0140
0140
0140
0140
0140
ff40
0040
ff40
0140
0140
0140
0140
0140
0140
ENDCHAR
STARTCHAR ch-100
ENCODING 100
SWIDTH 1000 0
DWIDTH 16 0
BBX 16 16 0 -2
BITMAP
0000
0000
0000
0000
0000
0000
0000
ffff
0000
ffff
0080
0080
0080
0080
0080
0080
ENDCHAR
STARTCHAR ch-101
ENCODING 101
SWIDTH 1000 0
DWIDTH 16 0
BBX 16 16 0 -2
BITMAP
0000
0000
0000
0000
0000
0000
0000
0000
ffff
0140
0140
0140
0140
0140
0140
0140
ENDCHAR
STARTCHAR ch-102
ENCODING 102
SWIDTH 1000 0
DWIDTH 16 0
BBX 16 16 0 -2
BITMAP
0000
0000
0000
0000
0000
0000
0000
ffff
0000
ff7f
0140
0140
0140
0140
0140
0140
ENDCHAR
STARTCHAR ch-103
ENCODING 103
SWIDTH 1000 0
DWIDTH 16 0
BBX 16 16 0 -2
BITMAP
0080
0080
0080
0080
0080
0080
0080
ffff
0000
ffff
0000
0000
0000
0000
0000
0000
ENDCHAR
STARTCHAR ch-104
ENCODING 104
SWIDTH 1000 0
DWIDTH 16 0
BBX 16 16 0 -2
BITMAP
0140
0140
0140
0140
0140
0140
0140
0140
ffff
0000
0000
0000
0000
0000
0000
0000
ENDCHAR
STARTCHAR ch-105
ENCODING 105
SWIDTH 1000 0
DWIDTH 16 0
BBX 16 16 0 -2
BITMAP
0140
0140
0140
0140
0140
0140
0140
ff7f
0000
ffff
0000
0000
0000
0000
0000
0000
ENDCHAR
STARTCHAR ch-106
ENCODING 106
SWIDTH 1000 0
DWIDTH 16 0
BBX 16 16 0 -2
BITMAP
0080
0080
0080
0080
0080
0080
0080
ffff
0000
ffff
0080
0080
0080
0080
0080
0080
ENDCHAR
STARTCHAR ch-107
ENCODING 107
SWIDTH 1000 0
DWIDTH 16 0
BBX 16 16 0 -2
BITMAP
0140
0140
0140
0140
0140
0140
0140
0140
ff7f
0140
0140
0140
0140
0140
0140
0140
ENDCHAR
STARTCHAR ch-108
ENCODING 108
SWIDTH 1000 0
DWIDTH 16 0
BBX 16 16 0 -2
BITMAP
0140
0140
0140
0140
0140
0140
0140
ff7f
0000
ff7f
0140
0140
0140
0140
0140
0140
ENDCHAR
STARTCHAR ch-109
ENCODING 109
SWIDTH 1000 0
DWIDTH 16 0
BBX 16 16 0 -2
BITMAP
0000
0000
0000
0000
0000
0000
0000
0000
0003
000c
0010
0020
0040
0040
0080
0080
ENDCHAR
STARTCHAR ch-110
ENCODING 110
SWIDTH 1000 0
DWIDTH 16 0
BBX 16 16 0 -2
BITMAP
0000
0000
0000
0000
0000
0000
0000
0000
e000
1800
0400
0200
0100
0100
0080
0080
ENDCHAR
STARTCHAR ch-111
ENCODING 111
SWIDTH 1000 0
DWIDTH 16 0
BBX 16 16 0 -2
BITMAP
0080
0080
0080
0100
0100
0200
0400
1800
e000
0000
0000
0000
0000
0000
0000
0000
ENDCHAR
STARTCHAR ch-112
ENCODING 112
SWIDTH 1000 0
DWIDTH 16 0
BBX 16 16 0 -2
BITMAP
0080
0080
0080
0040
0040
0020
0010
000c
0003
0000
0000
0000
0000
0000
0000
0000
ENDCHAR
STARTCHAR ch-113
ENCODING 113
SWIDTH 1000 0
DWIDTH 16 0
BBX 16 16 0 -2
BITMAP
0001
0002
0004
0008
0010
0020
0040
0080
0100
0200
0400
0800
1000
2000
4000
8000
ENDCHAR
STARTCHAR ch-114
ENCODING 114
SWIDTH 1000 0
DWIDTH 16 0
BBX 16 16 0 -2
BITMAP
8000
4000
2000
1000
0800
0400
0200
0100
0080
0040
0020
0010
0008
0004
0002
0001
ENDCHAR
STARTCHAR ch-115
ENCODING 115
SWIDTH 1000 0
DWIDTH 16 0
BBX 16 16 0 -2
BITMAP
8001
4002
2004
1008
0810
0420
0240
0180
0180
0240
0420
0810
1008
2004
4002
8001
ENDCHAR
STARTCHAR ch-116
ENCODING 116
SWIDTH 1000 0
DWIDTH 16 0
BBX 16 16 0 -2
BITMAP
0000
0000
0000
0000
0000
0000
0000
0000
ff80
0000
0000
0000
0000
0000
0000
0000
ENDCHAR
STARTCHAR ch-117
ENCODING 117
SWIDTH 1000 0
DWIDTH 16 0
BBX 16 16 0 -2
BITMAP
0080
0080
0080
0080
0080
0080
0080
0080
0080
0000
0000
0000
0000
0000
0000
0000
ENDCHAR
STARTCHAR ch-118
ENCODING 118
SWIDTH 1000 0
DWIDTH 16 0
BBX 16 16 0 -2
BITMAP
0000
0000
0000
0000
0000
0000
0000
0000
00ff
0000
0000
0000
0000
0000
0000
0000
ENDCHAR
STARTCHAR ch-119
ENCODING 119
SWIDTH 1000 0
DWIDTH 16 0
BBX 16 16 0 -2
BITMAP
0000
0000
0000
0000
0000
0000
0000
0000
0080
0080
0080
0080
0080
0080
0080
0080
ENDCHAR
STARTCHAR ch-120
ENCODING 120
SWIDTH 1000 0
DWIDTH 16 0
BBX 16 16 0 -2
BITMAP
0000
0000
0000
0000
0000
0000
0000
ff80
ff80
ff80
0000
0000
0000
0000
0000
0000
ENDCHAR
STARTCHAR ch-121
ENCODING 121
SWIDTH 1000 0
DWIDTH 16 0
BBX 16 16 0 -2
BITMAP
01c0
01c0
01c0
01c0
01c0
01c0
01c0
01c0
01c0
0000
0000
0000
0000
0000
0000
0000
ENDCHAR
STARTCHAR ch-122
ENCODING 122
SWIDTH 1000 0
DWIDTH 16 0
BBX 16 16 0 -2
BITMAP
0000
0000
0000
0000
0000
0000
0000
00ff
00ff
00ff
0000
0000
0000
0000
0000
0000
ENDCHAR
STARTCHAR ch-123
ENCODING 123
SWIDTH 1000 0
DWIDTH 16 0
BBX 16 16 0 -2
BITMAP
0000
0000
0000
0000
0000
0000
0000
0000
01c0
01c0
01c0
01c0
01c0
01c0
01c0
01c0
ENDCHAR
STARTCHAR ch-124
ENCODING 124
SWIDTH 1000 0
DWIDTH 16 0
BBX 16 16 0 -2
BITMAP
0000
0000
0000
0000
0000
0000
0000
00ff
ffff
00ff
0000
0000
0000
0000
0000
0000
ENDCHAR
STARTCHAR ch-125
ENCODING 125
SWIDTH 1000 0
DWIDTH 16 0
BBX 16 16 0 -2
BITMAP
0080
0080
0080
0080
0080
0080
0080
0080
01c0
01c0
01c0
01c0
01c0
01c0
01c0
01c0
ENDCHAR
STARTCHAR ch-126
ENCODING 126
SWIDTH 1000 0
DWIDTH 16 0
BBX 16 16 0 -2
BITMAP
0000
0000
0000
0000
0000
0000
0000
ff80
ffff
ff80
0000
0000
0000
0000
0000
0000
ENDCHAR
STARTCHAR ch-127
ENCODING 127
SWIDTH 1000 0
DWIDTH 16 0
BBX 16 16 0 -2
BITMAP
01c0
01c0
01c0
01c0
01c0
01c0
01c0
01c0
01c0
0080
0080
0080
0080
0080
0080
0080
ENDCHAR
ENDFONT
